<svg width="48" height="49" viewBox="0 0 48 49" fill="none" xmlns="http://www.w3.org/2000/svg">
<path d="M24.9036 19.1944L24.9033 24.2173V24.2173V24.2757C24.9033 24.3922 24.9184 24.5053 24.9466 24.613L24.8988 25.4307L24.8962 25.4747C24.885 25.6664 24.8103 25.834 24.6842 25.9603L26.1268 25.0154C26.0445 25.0019 25.9624 24.9727 25.8806 24.9281L25.4844 24.7124V24.2757V24.2173V19.1944M24.9036 19.1944V19.1943L25.194 19.1943L25.4844 19.1944M24.9036 19.1944C24.9036 19.3548 25.0338 19.4848 25.194 19.4848C25.3544 19.4848 25.4844 19.3545 25.4844 19.1944M24.9036 19.1944H25.194H25.4844M19.2833 18.7454L19.2833 18.7454L19.2833 18.7454ZM19.2833 18.7454C19.0703 19.1164 18.5586 19.255 18.1849 19.0403L19.2833 18.7454ZM17.8522 19.6181L17.8516 19.6177C17.5772 19.4593 17.3794 19.1999 17.2976 18.8958L17.2974 18.8954L17.2974 18.8953L17.297 18.8938C17.2304 18.6432 17.2473 18.3811 17.3431 18.1437V17.9491C17.1722 18.2441 17.1265 18.5883 17.2149 18.9174C17.3028 19.2464 17.5141 19.5213 17.8095 19.6926L17.8522 19.6181ZM25.0957 26.3714L25.1558 26.4315L25.0957 26.3715L25.095 26.3721C24.8442 26.6225 24.5077 26.7606 24.1545 26.7606C24.1545 26.7606 24.1545 26.7606 24.1545 26.7606C23.6743 26.7606 23.2532 26.5054 23.0194 26.1235C22.9954 26.1357 22.9711 26.1476 22.9465 26.1591L25.0957 26.3714ZM17.9195 18.284C17.8377 18.4258 17.8166 18.5872 17.8587 18.7445C17.8587 18.7445 17.8588 18.7446 17.8588 18.7446L17.8588 18.7447L17.859 18.7454C17.9007 18.9017 17.9992 19.0313 18.142 19.1147C18.142 19.1147 18.1421 19.1148 18.1421 19.1148L17.9195 18.284Z" fill="#4CAF4F" stroke="#4CAF4F" stroke-width="1.33333"/>
<path d="M16.1252 31.5923C15.9467 31.6998 15.7158 31.6418 15.6091 31.4635C15.5021 31.2854 15.5601 31.0542 15.7379 30.9473L16.1252 31.5923ZM11.7469 27.2276C11.7615 27.2012 11.7752 27.1766 11.7879 27.1537C11.8391 27.0614 11.8738 26.9989 11.8878 26.9738L11.9636 27.0137C11.9167 27.0981 11.8708 27.1808 11.8257 27.262C11.7993 27.2521 11.773 27.2407 11.7469 27.2276ZM22.1554 29.5217C22.3076 29.4302 22.415 29.2856 22.4579 29.1138C22.5007 28.9423 22.4741 28.764 22.3829 28.6118L22.1554 29.5217Z" fill="#4CAF4F" stroke="#4CAF4F" stroke-width="1.33333"/>
<path d="M27.8527 28.8939C27.7587 28.8356 27.6732 28.7665 27.5976 28.6885L26.8782 28.3122L26.8782 28.3122L26.8381 28.2912C26.7243 28.2317 26.6083 28.2034 26.4965 28.2032L27.8527 28.8939ZM26.1717 27.6625C26.1718 27.6625 26.1719 27.6625 26.1721 27.6624L26.2275 27.8847L26.2275 27.8847L26.3126 28.2261L26.3125 28.2262L26.1717 27.6625ZM30.3872 34.5862C30.387 34.5861 30.3869 34.586 30.3867 34.5859L30.3872 34.5862ZM25.845 30.9878L25.8464 30.9885L25.845 30.9878Z" fill="#4CAF4F" stroke="#4CAF4F" stroke-width="1.33333"/>
</svg>
