<svg width="48" height="49" viewBox="0 0 48 49" fill="none" xmlns="http://www.w3.org/2000/svg">
<path d="M23.2958 30.3475L23.9031 29.8366C25.7081 28.3181 27.0026 26.2813 27.6109 24.0023C28.2193 21.7233 28.1121 19.3124 27.304 17.0964C26.4958 14.8803 25.0258 12.9664 23.0932 11.6141C21.1605 10.2617 18.8588 9.53638 16.5 9.53638C14.1412 9.53638 11.8394 10.2617 9.90681 11.6141C7.97418 12.9664 6.50414 14.8803 5.69599 17.0964C4.88785 19.3124 4.78068 21.7233 5.38904 24.0023C5.99739 26.2813 7.29183 28.3181 9.09686 29.8366L9.70421 30.3475L8.98113 30.6747C6.00796 32.0202 3.44947 34.1375 1.57166 36.8066L23.2958 30.3475ZM23.2958 30.3475L24.0188 30.6747M23.2958 30.3475L24.0188 30.6747M24.0188 30.6747C26.9921 32.0203 29.5507 34.1377 31.4285 36.8069L31.4357 36.8171L31.4433 36.8269C31.5892 37.0138 31.6956 37.2283 31.756 37.4576C31.8165 37.6868 31.8297 37.926 31.7949 38.1605C31.7601 38.395 31.678 38.62 31.5536 38.8218C31.4293 39.0236 31.2652 39.1981 31.0713 39.3346C30.8775 39.4711 30.6579 39.5667 30.426 39.6158C30.194 39.6648 29.9545 39.6663 29.722 39.6199C29.4895 39.5736 29.2688 39.4806 29.0734 39.3464C28.8779 39.2122 28.7118 39.0397 28.585 38.8394L28.5786 38.8292L28.5717 38.8194C27.211 36.8813 25.4036 35.2994 23.3024 34.2073C21.2013 33.1152 18.868 32.545 16.5 32.545C14.1319 32.545 11.7987 33.1152 9.69752 34.2073C7.59634 35.2994 5.789 36.8813 4.42827 38.8194L4.42716 38.821C4.2672 39.0507 4.05392 39.2382 3.80561 39.3675C3.55729 39.4967 3.28135 39.5638 3.00142 39.563L2.99836 39.563C2.63935 39.5641 2.28905 39.4524 1.99698 39.2437L1.99458 39.242M24.0188 30.6747L1.99458 39.242M1.99458 39.242C1.61601 38.9747 1.35888 38.5683 1.2796 38.1117C1.20034 37.6553 1.30529 37.1861 1.57142 36.8069L1.99458 39.242ZM46.2901 39.2395L46.2901 39.2396C46.4786 39.1088 46.6393 38.9419 46.7628 38.7485C46.8863 38.5551 46.9701 38.3391 47.0093 38.113C47.0486 37.887 47.0425 37.6554 46.9915 37.4317C46.9404 37.208 46.8454 36.9967 46.712 36.81L46.7098 36.8069C44.832 34.1377 42.2734 32.0203 39.3001 30.6747L38.575 30.3466L39.1853 29.8358C40.9952 28.3209 42.2942 26.285 42.9055 24.0053C43.5168 21.7256 43.4107 19.3129 42.6016 17.0957C41.7924 14.8786 40.3197 12.9646 38.3838 11.6144C36.4479 10.2643 34.1429 9.5436 31.7827 9.55046L31.7804 9.55046C30.7301 9.54871 29.6846 9.69374 28.6744 9.98135L28.6654 9.9839L28.6654 9.98382C28.441 10.0432 28.2307 10.1466 28.0466 10.2881C27.8626 10.4295 27.7086 10.6062 27.5935 10.8077C27.4783 11.0093 27.4045 11.2317 27.3762 11.4621C27.3478 11.6925 27.3656 11.9262 27.4285 12.1496C27.4914 12.373 27.5981 12.5817 27.7424 12.7635L27.3639 13.0639L27.7424 12.7635C27.8867 12.9453 28.0657 13.0966 28.269 13.2086C28.4723 13.3205 28.6959 13.3909 28.9267 13.4156C29.1575 13.4404 29.3909 13.4189 29.6133 13.3526L29.6191 13.3509L29.6191 13.3509C30.3225 13.1502 31.0506 13.0491 31.7822 13.0505M46.2901 39.2395L43.4437 39.1067L43.8524 38.8186C43.8523 38.8185 43.8521 38.8183 43.852 38.8181C42.4885 36.8838 40.6807 35.3051 38.5805 34.2144C36.4801 33.1237 34.1485 32.5531 31.7818 32.5505H31.7812C31.3171 32.5505 30.872 32.3661 30.5438 32.0379C30.2156 31.7097 30.0312 31.2646 30.0312 30.8005C30.0312 30.3363 30.2156 29.8912 30.5438 29.563C30.872 29.2348 31.3171 29.0505 31.7812 29.0505C33.903 29.0505 35.9378 28.2076 37.4381 26.7073C38.9384 25.207 39.7812 23.1722 39.7812 21.0505C39.7812 18.9287 38.9384 16.8939 37.4381 15.3936C35.938 13.8935 33.9036 13.0507 31.7822 13.0505M46.2901 39.2395L46.2842 39.2437M46.2901 39.2395L46.2842 39.2437M31.7822 13.0505L31.7812 13.5505V13.0505C31.7815 13.0505 31.7819 13.0505 31.7822 13.0505ZM39.5062 30.2192L39.7124 29.7637C39.7811 29.7948 39.8497 29.8263 39.918 29.8582C39.7838 29.9815 39.6465 30.1018 39.5062 30.2192ZM39.5062 30.2192L39.8272 30.6026C39.8862 30.5532 39.9448 30.5032 40.0029 30.4528C39.8386 30.3726 39.6731 30.2947 39.5062 30.2192ZM46.2842 39.2437C45.9923 39.4523 45.6423 39.564 45.2835 39.563L46.2842 39.2437ZM9.84823 16.6059C8.96918 17.9215 8.49998 19.4682 8.49998 21.0505C8.49998 23.1722 9.34284 25.207 10.8431 26.7073C12.3434 28.2076 14.3783 29.0505 16.5 29.0505C18.0822 29.0505 19.629 28.5813 20.9445 27.7022C22.2601 26.8232 23.2855 25.5737 23.891 24.1119C24.4965 22.6501 24.6549 21.0416 24.3463 19.4897C24.0376 17.9379 23.2757 16.5124 22.1568 15.3936C21.038 14.2748 19.6126 13.5129 18.0607 13.2042C16.5089 12.8955 14.9003 13.0539 13.4385 13.6594C11.9767 14.2649 10.7273 15.2903 9.84823 16.6059Z" fill="#4CAF4F" stroke="#4CAF4F"/>
</svg>
